<svg width="300" height="134" viewBox="0 0 300 134" fill="none" xmlns="http://www.w3.org/2000/svg">
<rect width="300" height="134" rx="3" fill="#E5E5E5"/>
<path d="M177.409 40H121.472C115.618 40 110.821 44.2909 110.821 49.5273V86.4727C110.821 91.7091 115.618 96 121.472 96H177.409C183.263 96 188.06 91.7091 188.06 86.4727V49.5273C188.06 44.2909 183.263 40 177.409 40ZM163.587 51.9273C167.083 51.9273 169.929 54.4727 169.929 57.6C169.929 60.7273 167.083 63.2727 163.587 63.2727C160.091 63.2727 157.245 60.7273 157.245 57.6C157.164 54.4727 160.01 51.9273 163.587 51.9273ZM170.823 85.0909H126.838C124.642 85.0909 123.26 82.9091 124.48 81.2364L139.684 60.2909C140.822 58.7636 143.342 58.7636 144.399 60.3636L154.237 74.8364C154.644 75.4909 155.619 75.5636 156.188 75.0545L159.603 72.1455C160.741 71.2 162.449 71.2 163.587 72.2182L172.856 80.9455C174.563 82.4727 173.344 85.0909 170.823 85.0909Z" fill="white"/>
</svg>
